<svg width="256" height="256" viewBox="0 0 256 256" fill="none" xmlns="http://www.w3.org/2000/svg">
    <mask id="mask0_763_307" style="mask-type:luminance" maskUnits="userSpaceOnUse" x="0" y="0"
        width="257" height="257">
        <path d="M256.403 0.293213H0.402832V256.293H256.403V0.293213Z" fill="white" />
    </mask>
    <g mask="url(#mask0_763_307)">
        <path
            d="M149.482 126.758C161.011 126.73 172.541 126.708 184.071 126.695C189.424 126.688 194.778 126.68 200.13 126.666C204.795 126.653 209.46 126.645 214.124 126.643C216.595 126.641 219.067 126.638 221.537 126.629C223.861 126.62 226.185 126.618 228.509 126.62C229.363 126.619 230.218 126.617 231.073 126.612C232.236 126.606 233.399 126.608 234.563 126.61C235.542 126.609 235.542 126.609 236.539 126.607C238.073 126.758 238.073 126.758 239.295 127.986C239.838 133.405 239.093 139.053 238.67 144.461C238.604 145.327 238.539 146.192 238.474 147.058C238.336 148.865 238.197 150.671 238.058 152.478C237.881 154.751 237.707 157.024 237.536 159.296C236.4 174.292 236.4 174.292 235.857 179.988C235.798 180.604 235.74 181.22 235.679 181.855C235.571 182.959 235.46 184.064 235.345 185.168C235.029 188.373 235.075 191.382 235.324 194.595C235.395 200.415 232.532 203.601 228.909 207.794C228.242 208.601 227.577 209.41 226.913 210.219C221.954 216.199 221.954 216.199 220.355 217.003C219.309 216.95 218.264 216.855 217.224 216.734C216.668 216.672 216.112 216.61 215.539 216.545C215.112 216.494 214.685 216.442 214.245 216.389C214.188 215.817 214.131 215.245 214.072 214.655C213.53 209.244 212.983 203.835 212.428 198.426C212.144 195.645 211.861 192.864 211.584 190.083C211.316 187.395 211.042 184.709 210.764 182.023C210.659 181.001 210.557 179.979 210.457 178.957C209.953 173.84 209.439 169.024 207.525 164.207C207.323 163.599 207.121 162.991 206.914 162.365C201.47 162.365 196.026 162.365 190.417 162.365C190.306 164.717 190.195 167.069 190.08 169.492C189.967 171.791 189.851 174.088 189.735 176.386C189.656 177.974 189.579 179.561 189.506 181.148C189.399 183.441 189.282 185.733 189.164 188.025C189.133 188.725 189.103 189.426 189.071 190.148C188.709 196.831 187.042 202.953 184.88 209.252C184.724 209.715 184.568 210.178 184.406 210.655C184.116 211.515 183.825 212.374 183.531 213.232C182.967 214.895 182.415 216.563 181.863 218.231C177.81 218.408 173.756 218.583 169.703 218.755C168.326 218.815 166.949 218.874 165.574 218.934C163.585 219.021 161.597 219.106 159.608 219.19C159.001 219.217 158.395 219.244 157.77 219.271C153.782 219.438 149.806 219.489 145.816 219.459C145.676 212.409 145.882 205.482 146.518 198.459C147.013 192.948 147.365 187.434 147.682 181.911C148.003 176.329 148.353 170.751 148.744 165.173C151.71 145.561 151.71 145.561 149.482 126.758Z"
            fill="#094341" />
        <path
            d="M142.532 39.2763C149.373 42.8457 158.42 49.0851 161.014 56.6576C162.08 60.7349 161.901 64.1605 159.83 67.8611C159.244 68.7543 159.244 68.7543 158.646 69.6648C158.011 67.5898 157.986 65.6879 158.035 63.5257C156.447 67.2251 155.768 70.733 155.243 74.7246C154.98 76.4178 154.98 76.4178 154.369 77.6456C154.309 79.251 154.284 80.8367 154.293 82.4414C154.29 82.8792 154.288 83.3163 154.286 83.7669C154.29 86.1009 154.421 88.2693 154.98 90.5377C152.918 90.2019 151.875 89.89 150.092 88.6959C147.623 88.8918 146.067 89.8851 143.983 91.1516C142.725 91.6691 141.456 92.1375 140.176 92.5955C139.053 92.9859 139.053 92.9859 137.873 93.6072C132.912 94.258 129.013 94.6816 124.431 92.3794C120.214 91.4696 115.914 90.8244 111.601 91.1516C111.198 91.5568 110.794 91.9619 110.379 92.3794C109.057 92.4991 109.057 92.4991 107.553 92.4561C107.054 92.4451 106.554 92.434 106.04 92.4224C105.657 92.4083 105.274 92.3941 104.88 92.3794C104.211 91.0343 104.136 90.1656 104.028 88.6745C103.472 79.2645 103.472 79.2645 98.312 71.7754C97.6582 71.2658 96.999 70.7631 96.3263 70.2787C96.933 72.2481 97.577 74.0168 98.5411 75.8419C99.3928 77.6701 99.5553 78.7316 99.3812 80.7151C98.978 80.7151 98.5747 80.7151 98.1592 80.7151C93.0423 73.9001 90.4328 66.5252 91.4385 58.0005C92.4417 53.8389 94.6082 51.1002 98.1592 48.7919C99.658 48.0065 101.175 47.2778 102.706 46.5569C104.849 45.4127 106.634 43.9479 108.481 42.377C112.401 39.4765 116.71 39.9307 121.376 40.1971C122.974 40.4519 124.528 40.7797 126.102 41.1516C128.218 41.5695 130.224 41.505 132.374 41.425C131.164 41.2224 129.955 41.0198 128.708 40.8111C128.708 40.4059 128.708 40.0007 128.708 39.5832C132.956 37.6071 138.173 37.4901 142.532 39.2763Z"
            fill="#6ABB73" />
        <path
            d="M69.4435 131.056C69.2339 133.024 68.8502 133.496 67.305 134.816C66.801 135.196 66.2969 135.576 65.7776 135.967C65.576 136.372 65.3743 136.777 65.1666 137.195C65.8344 137.334 66.5022 137.473 67.1902 137.617C73.6916 139.264 81.3875 142.644 85.3289 148.245C85.9997 149.526 86.648 150.819 87.2767 152.12C90.6756 158.539 95.1632 161.654 101.825 164.207C102.285 164.388 102.744 164.571 103.217 164.758C105.723 165.678 108.118 166.186 110.761 166.547C114.728 167.142 118.173 168.565 121.835 170.137C124.966 171.434 127.584 171.692 130.962 171.689C131.395 171.689 131.829 171.69 132.276 171.69C135.515 171.657 138.413 171.243 141.539 170.346C141.893 172.284 141.978 173.941 141.539 175.871C139.977 177.719 138.08 178.898 136.04 180.168C135.612 180.462 135.185 180.755 134.744 181.058C131.23 183.355 127.437 185.068 123.63 186.806C123.097 187.05 122.564 187.295 122.014 187.546C121.504 187.774 120.994 188.002 120.467 188.238C120.01 188.443 119.553 188.648 119.082 188.859C117.618 189.412 116.196 189.723 114.656 189.991C114.656 190.396 114.656 190.801 114.656 191.219C122.835 191.655 129.503 189.195 136.902 186.015C139.095 185.08 139.095 185.08 140.928 184.466C140.928 185.479 140.928 186.492 140.928 187.535C128.788 192.192 119.471 194.912 106.523 192.293C105.895 192.168 105.268 192.042 104.622 191.913C100.9 191.108 97.8179 190.017 94.4936 188.149C95.4003 186.216 96.222 185.113 97.8918 183.775C99.5097 182.496 99.5097 182.496 100.603 180.782C100.943 177.402 99.9362 174.892 98.6556 171.843C98.4778 171.387 98.2994 170.931 98.1155 170.462C96.9149 167.549 95.6385 165.667 93.2716 163.593C93.2557 163.922 93.2398 164.251 93.224 164.59C92.9698 168.116 92.338 171.483 91.5151 174.912C91.3672 175.555 91.3672 175.555 91.2163 176.211C90.6469 178.492 90.1153 179.832 88.3838 181.396C88.4027 180.869 88.4027 180.869 88.4223 180.332C88.8188 167.712 87.8681 156.36 79.6395 146.212C79.0975 145.667 78.5556 145.123 77.9972 144.562C77.5939 144.562 77.1907 144.562 76.7752 144.562C76.9377 145.024 77.0996 145.486 77.267 145.962C80.54 155.853 80.6256 165.546 80.4411 175.871C80.2394 175.871 80.0378 175.871 79.8301 175.871C79.772 175.38 79.714 174.889 79.6541 174.383C78.5495 159.524 78.5495 159.524 72.4983 146.403C72.5356 146.961 72.5723 147.519 72.6108 148.094C72.9804 153.67 73.3507 159.245 73.7203 164.821C71.9106 163.252 71.0485 161.48 70.0166 159.334C69.7068 158.695 69.397 158.057 69.0781 157.398C68.2215 155.612 68.2215 155.612 67.7058 154.217C66.6488 152.63 65.4923 152.539 63.677 152.12C63.0856 151.979 62.4942 151.837 61.885 151.691C61.355 151.567 60.8249 151.443 60.2788 151.315C59.6739 151.112 59.069 150.909 58.4458 150.701C58.829 157.922 59.9819 161.528 64.9185 166.818C68.7964 171.265 71.3674 176.302 73.4527 181.78C73.614 182.202 73.7753 182.623 73.9415 183.059C75.0211 186.07 75.0211 186.07 74.3313 188.149C74.035 187.637 73.7392 187.125 73.4338 186.598C69.7355 179.985 69.7355 179.985 64.5556 174.643C62.697 174.768 61.8087 174.991 60.3933 176.216C60.1539 176.508 59.9145 176.799 59.6678 177.099C60.6267 179.416 62.0677 180.896 63.8206 182.662C64.1084 182.953 64.3962 183.243 64.6931 183.542C65.3016 184.155 65.912 184.766 66.5236 185.375C67.4504 186.3 68.3706 187.231 69.2907 188.163C69.8852 188.76 70.4803 189.357 71.076 189.953C71.6118 190.49 72.1483 191.027 72.7006 191.581C73.9195 192.687 75.0089 193.555 76.3677 194.444C76.9053 194.798 77.443 195.151 77.9972 195.516C77.9972 195.719 77.9972 195.921 77.9972 196.13C74.7364 196.613 72.7886 194.956 70.2072 193.214C63.454 188.595 63.454 188.595 55.5866 187.223C49.9326 188.467 45.068 193.272 41.9494 197.972C41.9494 198.58 41.9494 199.187 41.9494 199.813C42.3495 199.569 42.7496 199.324 43.1618 199.072C51.9497 193.946 60.0228 193.237 69.7966 195.727C70.2848 195.86 70.7736 195.993 71.2764 196.13C71.2764 196.333 71.2764 196.535 71.2764 196.744C70.2133 196.845 70.2133 196.845 69.1282 196.948C57.1824 198.136 46.909 200.947 37.6726 209.022C36.7464 209.763 36.7464 209.763 35.8014 210.519C35.4108 210.835 35.0201 211.152 34.6177 211.478C34.8084 202.944 38.0568 196.344 42.2167 189.108C47.5096 179.845 50.0899 172.143 51.7545 161.568C52.7469 155.538 54.2132 150.474 57.2239 145.176C57.4582 144.753 57.6925 144.33 57.9339 143.894C65.1416 131.056 65.1416 131.056 69.4435 131.056Z"
            fill="#308366" />
        <path
            d="M191.639 164.207C193.942 164.118 196.246 164.063 198.55 164.015C199.205 163.99 199.86 163.964 200.535 163.937C201.163 163.927 201.791 163.917 202.439 163.907C203.018 163.891 203.597 163.875 204.193 163.858C205.691 164.207 205.691 164.207 206.778 165.531C207.581 167.408 207.871 168.917 208.061 170.948C208.133 171.663 208.204 172.379 208.277 173.117C208.344 173.861 208.41 174.605 208.479 175.373C208.619 176.826 208.76 178.281 208.901 179.734C209.009 180.876 209.009 180.876 209.119 182.04C209.373 184.625 209.655 187.206 209.944 189.787C210.679 196.342 211.339 202.903 212 209.466C212.157 211.02 212.314 212.576 212.472 214.13C212.518 214.594 212.565 215.058 212.613 215.535C212.658 215.978 212.702 216.422 212.749 216.878C212.812 217.52 212.812 217.52 212.875 218.174C212.977 219.057 213.104 219.936 213.253 220.812C213.794 224.084 213.794 224.084 212.971 225.553C212.624 225.819 212.278 226.084 211.92 226.358C211.531 226.668 211.142 226.977 210.74 227.296C210.309 227.61 209.878 227.923 209.434 228.245C208.99 228.585 208.546 228.924 208.089 229.275C206.696 230.326 205.283 231.343 203.858 232.351C203.43 232.655 203.002 232.958 202.56 233.271C200.027 235.04 197.438 236.683 194.792 238.276C193.473 239.103 192.226 239.995 190.966 240.909C184.507 245.28 178.704 245.736 171.133 245.473C170.456 245.452 170.456 245.452 169.766 245.429C164.438 245.22 159.836 244.531 154.98 242.173C153.762 241.752 152.542 241.335 151.314 240.945C151.314 239.325 151.314 237.704 151.314 236.034C150.753 236.204 150.193 236.374 149.615 236.55C148.49 236.883 148.49 236.883 147.343 237.224C146.237 237.555 146.237 237.555 145.109 237.892C135.89 240.237 126.672 239.623 117.71 236.648C117.71 236.243 117.71 235.838 117.71 235.42C118.869 235.507 120.027 235.598 121.186 235.689C122.153 235.763 122.153 235.763 123.14 235.84C125.042 236.034 125.042 236.034 126.486 236.353C136.978 238.274 147.459 235.736 156.324 230.008C159.226 227.734 161.37 224.883 163.534 221.914C164.744 222.218 164.744 222.218 165.978 222.528C159.858 230.528 159.858 230.528 155.591 232.965C155.188 232.965 154.785 232.965 154.369 232.965C154.369 233.37 154.369 233.775 154.369 234.192C159.176 234.197 163.982 234.183 168.789 234.143C171.021 234.126 173.253 234.114 175.485 234.119C177.641 234.122 179.795 234.109 181.951 234.083C183.17 234.073 184.39 234.081 185.61 234.089C189.384 234.153 189.384 234.153 192.797 232.812C193.761 231.761 193.761 231.761 194.694 229.895C194.956 229.478 195.218 229.061 195.488 228.631C197.546 222.9 195.569 214.435 195.114 208.408C194.945 206.123 194.777 203.838 194.61 201.552C194.545 200.671 194.545 200.671 194.479 199.771C194.16 195.414 193.862 191.057 193.574 186.699C193.513 185.773 193.513 185.773 193.45 184.828C193.29 182.412 193.131 179.997 192.975 177.581C192.867 175.913 192.757 174.246 192.646 172.579C192.615 172.085 192.584 171.592 192.552 171.084C192.395 168.747 192.172 166.49 191.639 164.207Z"
            fill="#094140" />
        <path
            d="M80.6316 143.68C84.1832 145.588 85.5647 148.663 87.3145 152.159C90.684 158.566 95.1888 161.663 101.825 164.207C102.514 164.48 102.514 164.48 103.216 164.758C105.723 165.678 108.118 166.186 110.761 166.548C114.728 167.142 118.173 168.566 121.835 170.137C124.965 171.434 127.583 171.692 130.962 171.689C131.395 171.689 131.829 171.69 132.276 171.69C135.515 171.657 138.413 171.243 141.539 170.346C141.893 172.284 141.978 173.941 141.539 175.871C139.977 177.72 138.079 178.898 136.04 180.168C135.612 180.462 135.185 180.755 134.744 181.058C131.23 183.355 127.437 185.068 123.63 186.807C123.096 187.05 122.564 187.295 122.014 187.546C121.504 187.774 120.993 188.003 120.467 188.238C120.01 188.443 119.553 188.648 119.082 188.859C117.618 189.412 116.195 189.723 114.656 189.991C114.656 190.396 114.656 190.801 114.656 191.219C122.835 191.656 129.503 189.195 136.902 186.015C139.095 185.08 139.095 185.08 140.928 184.466C140.928 185.479 140.928 186.492 140.928 187.535C128.788 192.193 119.471 194.912 106.522 192.293C105.895 192.168 105.268 192.042 104.622 191.913C100.9 191.108 97.8178 190.017 94.4935 188.149C95.4002 186.216 96.2219 185.114 97.8918 183.775C99.5096 182.496 99.5096 182.496 100.603 180.782C100.943 177.402 99.9361 174.892 98.6555 171.843C98.4777 171.387 98.2993 170.932 98.1154 170.462C96.9148 167.55 95.6385 165.667 93.2715 163.593C93.2556 163.922 93.2398 164.252 93.2239 164.591C92.9697 168.116 92.338 171.483 91.515 174.912C91.4166 175.341 91.3176 175.769 91.2162 176.211C90.6468 178.492 90.1152 179.833 88.3837 181.396C88.4026 180.87 88.4026 180.87 88.4222 180.332C88.8633 166.294 87.1306 155.075 77.9971 143.948C79.219 143.334 79.219 143.334 80.6316 143.68Z"
            fill="#318467" />
        <path
            d="M137.873 109.569C140.9 112.176 142.322 115.178 143.982 118.777C144.387 119.598 144.793 120.417 145.204 121.233C145.608 120.828 146.011 120.423 146.426 120.005C146.303 121.417 146.165 122.824 146.011 124.233C145.875 125.562 145.773 126.895 145.696 128.229C145.184 134.212 143.17 137.227 139.095 141.492C138.215 142.54 137.337 143.589 136.46 144.638C135.307 146.002 134.568 146.867 132.921 147.55C132.538 147.577 132.156 147.604 131.763 147.631C130.07 145.931 130.298 144.706 130.159 142.336C130.113 141.606 130.067 140.877 130.02 140.125C129.99 139.563 129.96 139.001 129.93 138.423C129.856 138.984 129.782 139.546 129.706 140.125C129.603 140.855 129.501 141.584 129.395 142.336C129.296 143.062 129.197 143.789 129.095 144.538C128.708 146.403 128.708 146.403 127.486 147.631C124.19 147.631 121.961 145.316 119.543 143.334C118.833 142.786 118.123 142.237 117.412 141.689C112.725 137.981 109.91 135.207 108.546 129.214C108.274 128.274 107.997 127.335 107.715 126.399C105.38 118.497 105.38 118.497 106.102 116.322C106.612 117.025 106.612 117.025 107.133 117.741C108.414 119.455 108.414 119.455 110.131 120.178C111.601 121.233 111.601 121.233 112.032 123.025C112.054 123.687 112.075 124.349 112.097 125.032C112.126 125.699 112.155 126.366 112.185 127.053C112.194 127.564 112.202 128.074 112.211 128.6C112.315 128.192 112.419 127.785 112.527 127.365C113.948 122.162 115.981 119.729 120.154 116.322C120.57 115.866 120.986 115.41 121.414 114.941C122.814 113.67 123.804 113.459 125.653 113.252C125.955 114.772 125.955 114.772 126.264 116.322C127.474 116.727 128.683 117.132 129.93 117.55C130.131 117.144 130.333 116.739 130.541 116.322C131.751 116.322 132.96 116.322 134.207 116.322C134.207 116.93 134.207 117.537 134.207 118.164C136.156 117.372 136.156 117.372 137.873 115.708C138.203 113.63 138.086 111.656 137.873 109.569Z"
            fill="#65B572" />
        <path
            d="M126.685 200.427C128.669 201.03 130.012 201.793 131.763 202.883C133.14 203.389 134.527 203.835 135.928 204.267C137.262 204.725 137.262 204.725 139.706 205.953C139.706 208.789 139.706 211.625 139.706 214.547C139.303 214.547 138.899 214.547 138.484 214.547C138.295 213.876 138.106 213.205 137.911 212.514C137.268 210.973 136.924 210.384 135.413 209.641C134.45 209.354 133.482 209.084 132.51 208.831C130.695 208.266 129.51 207.2 128.097 205.953C127.694 205.953 127.291 205.953 126.875 205.953C130.207 210.378 133.642 214.218 138.141 217.463C139.818 219.891 139.901 222.701 139.706 225.598C139.069 227.16 138.396 228.004 137.262 229.281C136.456 229.079 135.649 228.876 134.818 228.667C135.02 226.034 135.221 223.4 135.429 220.686C134.421 220.281 133.413 219.876 132.374 219.459C131.638 219.038 130.913 218.596 130.205 218.13C129.829 217.885 129.452 217.64 129.065 217.387C128.683 217.133 128.3 216.88 127.907 216.619C127.512 216.361 127.118 216.104 126.712 215.838C125.746 215.205 124.783 214.569 123.82 213.933C125.008 216.626 126.172 218.294 128.441 220.149C130.252 221.637 131.549 222.755 132.374 224.984C132.527 227.209 132.527 227.209 132.374 229.281C131.152 230.509 131.152 230.509 128.785 230.662C126.842 230.62 125.473 230.388 123.82 229.281C124.022 228.673 124.224 228.066 124.431 227.439C125.944 227.136 125.944 227.136 127.486 226.826C126.591 224.452 125.485 223.59 123.21 222.528C121.174 222.525 121.174 222.525 119.048 222.951C118.293 223.078 117.538 223.205 116.761 223.336C115.135 223.661 113.544 224.015 111.944 224.447C109.666 225.009 107.826 225.209 105.491 224.984C104.656 224.399 103.84 223.784 103.047 223.142C101.122 222.7 101.122 222.7 99.3813 222.528C99.7876 220.124 100.474 217.966 101.367 215.698C101.61 215.064 101.852 214.429 102.102 213.775C103.508 211.272 105.162 210.558 107.825 209.686C110.259 208.854 112.358 207.661 114.579 206.375C115.013 206.129 115.446 205.883 115.892 205.63C118.108 204.364 120.239 203.045 122.331 201.579C124.431 200.427 124.431 200.427 126.685 200.427Z"
            fill="#62B172" />
        <path
            d="M92.0495 99.1326C92.2511 99.1326 92.4528 99.1326 92.6605 99.1326C92.6165 99.6636 92.5725 100.195 92.5267 100.742C92.1332 106.112 91.9505 111.474 91.8968 116.859C91.8839 117.501 91.8705 118.142 91.8577 118.803C91.8387 122.989 92.4442 126.511 93.8824 130.442C93.8824 129.226 93.8824 128.011 93.8824 126.758C96.0447 129.357 97.3174 132.407 98.7403 135.449C99.9183 137.894 101.044 139.619 103.047 141.492C103.047 141.897 103.047 142.303 103.047 142.72C103.45 142.72 103.854 142.72 104.269 142.72C104.269 143.125 104.269 143.53 104.269 143.948C104.608 144.104 104.947 144.26 105.296 144.421C106.935 145.294 108.354 146.329 109.844 147.44C116.23 152.319 116.23 152.319 123.209 156.226C120.837 157.02 119.33 156.358 117.062 155.574C116.651 155.432 116.24 155.29 115.817 155.144C103.786 150.823 96.7321 140.871 91.3243 129.683C88.8529 124.294 88.3842 118.468 87.7727 112.639C87.4629 114.198 87.158 115.758 86.8562 117.32C86.7248 117.976 86.7248 117.976 86.591 118.646C85.7729 122.915 85.5566 125.889 87.6199 129.866C87.9315 130.481 88.2437 131.096 88.5651 131.73C89.5952 133.494 90.7383 135.02 92.0495 136.581C91.8479 136.986 91.6463 137.391 91.4385 137.809C86.8293 133.502 82.36 128.608 80.4409 122.461C80.7171 119.829 81.7631 117.775 82.9612 115.439C83.3492 114.68 83.7365 113.921 84.1233 113.162C84.3225 112.773 84.5216 112.384 84.7269 111.985C85.3239 110.807 85.9031 109.622 86.4768 108.432C86.6619 108.05 86.8476 107.668 87.0383 107.275C87.5545 106.211 88.0684 105.145 88.5816 104.08C89.5854 102.239 90.6669 100.703 92.0495 99.1326Z"
            fill="#2F7F64" />
        <path
            d="M85.9181 204.169C86.7295 204.45 87.5384 204.738 88.3455 205.032C88.7628 205.178 89.1807 205.325 89.6115 205.476C90.63 205.833 91.6454 206.199 92.6602 206.567C91.7554 208.778 90.5511 209.894 88.7268 211.401C85.3358 214.372 82.6915 217.742 79.9824 221.337C78.6077 223.142 78.6077 223.142 77.3858 224.37C76.7809 224.37 76.176 224.37 75.5528 224.37C74.0663 221.383 74.6633 217.893 75.6243 214.823C76.3764 212.87 77.1591 210.94 77.9968 209.022C76.1321 210.469 74.4739 211.893 72.9562 213.703C72.589 214.13 72.2224 214.558 71.8442 214.998C71.0402 215.946 70.2416 216.9 69.4479 217.857C66.8666 220.878 64.1581 223.498 61.0421 225.943C60.7104 226.207 60.3788 226.471 60.037 226.743C58.1151 228.203 56.5756 229.026 54.1686 229.281C53.967 228.876 53.7653 228.471 53.5576 228.053C58.616 222.171 58.616 222.171 60.2784 220.686C60.6816 220.686 61.0849 220.686 61.5003 220.686C61.5003 220.281 61.5003 219.876 61.5003 219.459C62.2476 218.723 62.2476 218.723 63.3712 217.809C66.5152 215.142 69.3594 212.193 72.2187 209.225C76.4858 204.859 79.6415 202.251 85.9181 204.169Z"
            fill="#318367" />
        <path
            d="M189.806 234.192C190.109 234.8 190.109 234.8 190.417 235.42C190.014 235.623 189.611 235.825 189.195 236.034C191.917 236.642 191.917 236.642 194.694 237.262C194.694 237.667 194.694 238.072 194.694 238.49C184.167 246.046 175.276 245.944 162.923 244.629C162.722 242.4 162.52 240.172 162.312 237.876C160.699 237.268 159.086 236.66 157.424 236.034C157.424 235.831 157.424 235.629 157.424 235.42C157.766 235.414 158.108 235.407 158.46 235.401C162.008 235.335 165.556 235.264 169.104 235.192C170.429 235.165 171.754 235.14 173.079 235.115C174.981 235.079 176.883 235.04 178.785 235C179.38 234.99 179.975 234.98 180.588 234.97C181.138 234.957 181.689 234.945 182.256 234.932C182.985 234.918 182.985 234.918 183.728 234.903C185.849 234.73 187.544 234.143 189.806 234.192Z"
            fill="#042B2F" />
        <path
            d="M68.7944 198.394C69.2404 198.396 69.687 198.399 70.1471 198.401C71.2762 198.586 71.2762 198.586 72.4981 199.814C73.9144 200.255 75.3398 200.668 76.775 201.041C75.0203 202.913 73.213 204.342 71.0782 205.756C70.4489 206.175 69.8202 206.594 69.1726 207.025C68.5182 207.456 67.8645 207.887 67.19 208.332C66.5478 208.758 65.9057 209.185 65.244 209.624C63.9787 210.464 62.7133 211.303 61.4465 212.141C59.4126 213.488 57.3855 214.846 55.3607 216.208C47.7277 221.3 47.7277 221.3 43.7822 221.3C43.7822 220.895 43.7822 220.49 43.7822 220.073C45.0595 218.991 46.3436 217.972 47.6771 216.965C50.3985 214.87 53.0282 212.749 55.5435 210.404C58.3639 207.797 61.3815 205.643 64.5554 203.497C65.398 202.899 66.2381 202.298 67.0757 201.694C67.6555 201.276 68.2347 200.858 68.8323 200.427C61.5268 201.156 55.5501 205.831 49.8919 210.25C49.3375 210.678 48.783 211.106 48.2117 211.547C46.7963 212.584 46.7963 212.584 46.2261 213.933C45.8228 213.933 45.4196 213.933 45.0041 213.933C44.8403 214.326 44.6764 214.719 44.5077 215.123C43.7822 216.389 43.7822 216.389 41.9492 217.003C42.0951 214.511 42.2498 213.082 43.8585 211.133C44.4382 210.639 45.0179 210.145 45.6151 209.636C45.9211 209.356 46.227 209.074 46.5423 208.785C49.1687 206.412 51.8741 204.693 55.0089 203.075C55.4389 202.843 55.869 202.612 56.312 202.374C60.1558 200.354 64.3666 198.289 68.7944 198.394Z"
            fill="#2F8266" />
        <path
            d="M147.648 127.986C148.253 128.391 148.858 128.796 149.481 129.214C149.653 130.825 149.653 130.825 149.57 132.897C149.529 134.06 149.529 134.06 149.488 135.246C149.448 136.1 149.407 136.955 149.367 137.809C149.331 138.693 149.296 139.577 149.261 140.461C149.148 143.261 149.012 146.06 148.87 148.859C148.848 149.309 148.825 149.759 148.801 150.222C148.31 159.861 147.683 169.487 146.931 179.109C145.922 192.542 145.313 206.008 144.594 219.459C143.388 218.628 143.388 218.628 142.15 217.617C141.886 216.175 141.886 216.175 141.952 214.372C141.974 213.652 141.997 212.931 142.02 212.19C142.062 211.338 142.106 210.487 142.15 209.636C142.194 208.659 142.238 207.683 142.282 206.706C142.455 203.089 142.664 199.476 142.876 195.861C142.914 195.188 142.952 194.514 142.992 193.82C143.777 180.156 144.625 166.496 145.484 152.837C145.586 151.197 145.688 149.557 145.79 147.917C145.951 145.32 146.115 142.722 146.281 140.126C146.343 139.157 146.403 138.189 146.463 137.221C146.545 135.891 146.631 134.562 146.717 133.233C146.764 132.483 146.811 131.733 146.86 130.96C147.037 129.214 147.037 129.214 147.648 127.986Z"
            fill="#15706A" />
        <path
            d="M103.772 203.42C104.769 203.437 104.769 203.437 105.784 203.454C106.547 203.475 106.547 203.475 107.324 203.497C106.662 204.01 106.662 204.01 105.987 204.533C99.21 210.132 95.8465 218.832 94.8916 227.533C94.7938 230.731 94.9863 232.778 96.9371 235.42C96.7355 235.826 96.5339 236.231 96.3262 236.648C92.1177 233.498 89.826 230.04 88.4977 224.907C88.0474 217.964 90.173 213.317 94.6197 208.035C97.5554 205.035 99.4421 203.327 103.772 203.42Z"
            fill="#318467" />
        <path
            d="M46.2263 186.921C46.4279 186.921 46.6295 186.921 46.8372 186.921C47.6407 189.989 47.6407 189.989 47.4482 191.833C46.5032 193.158 45.4796 194.126 44.2477 195.183C43.0275 196.174 43.0275 196.174 41.9494 197.972C41.9494 198.58 41.9494 199.187 41.9494 199.813C42.3495 199.569 42.7496 199.324 43.1618 199.072C51.9497 193.946 60.0228 193.237 69.7966 195.727C70.2848 195.86 70.7735 195.993 71.2764 196.13C71.2764 196.333 71.2764 196.535 71.2764 196.744C70.5676 196.811 69.8589 196.878 69.1282 196.948C57.1824 198.136 46.909 200.947 37.6726 209.022C37.0551 209.516 36.4376 210.01 35.8014 210.519C35.4108 210.835 35.0201 211.152 34.6177 211.478C34.6878 210.403 34.7657 209.328 34.8468 208.255C34.8893 207.656 34.9318 207.058 34.9756 206.442C35.4061 203.52 37.011 201.306 38.5532 198.828C38.96 198.174 39.3668 197.52 39.7859 196.846C40.4221 195.827 40.4221 195.827 41.0711 194.787C41.4976 194.1 41.9241 193.414 42.3635 192.707C45.5351 187.616 45.5351 187.616 46.2263 186.921Z"
            fill="#146758" />
        <path
            d="M107.324 170.96C111.612 171.357 115.722 172.141 119.925 173.07C125.485 174.271 130.995 175.261 136.651 175.871C133.957 178.81 132.044 180.167 128.073 180.332C127.139 180.337 126.205 180.333 125.271 180.322C124.782 180.317 124.294 180.312 123.791 180.306C113.437 180.111 113.437 180.111 109.364 176.199C107.704 174.288 107.324 173.566 107.324 170.96Z"
            fill="#000A03" />
        <path
            d="M107.515 210.442C107.855 210.581 108.195 210.72 108.546 210.864C108.344 211.269 108.143 211.674 107.935 212.092C107.862 213.011 107.828 213.933 107.82 214.854C107.807 215.586 107.807 215.586 107.795 216.331C107.815 217.752 107.815 217.752 109.157 218.845C110.871 219.101 112.551 219.303 114.274 219.459C119.93 219.974 119.93 219.974 121.988 221.3C121.786 221.706 121.584 222.111 121.377 222.528C120.015 222.902 118.636 223.212 117.252 223.488C116.5 223.64 115.746 223.793 114.971 223.95C114.262 224.089 113.553 224.228 112.823 224.37C112.272 224.487 111.722 224.603 111.155 224.722C109.213 225.089 107.462 225.128 105.491 224.984C104.656 224.399 103.84 223.784 103.047 223.142C101.122 222.7 101.122 222.7 99.3813 222.528C99.7876 220.124 100.474 217.966 101.367 215.698C101.61 215.064 101.852 214.429 102.102 213.775C103.356 211.542 104.857 210.081 107.515 210.442Z"
            fill="#146859" />
        <path
            d="M149.481 127.372C149.884 127.575 150.288 127.777 150.703 127.986C150.875 139.199 150.4 150.266 149.558 161.444C149.386 163.808 149.217 166.173 149.047 168.536C148.937 170.084 148.825 171.631 148.713 173.179C148.284 179.126 147.905 185.074 147.572 191.027C147.192 197.769 146.786 204.509 146.35 211.248C146.322 211.669 146.296 212.09 146.267 212.525C146.118 214.836 145.967 217.147 145.815 219.459C145.614 219.459 145.412 219.459 145.204 219.459C144.658 215.139 144.568 210.988 144.785 206.643C144.813 205.994 144.843 205.346 144.873 204.678C144.976 202.442 145.09 200.207 145.204 197.972C145.226 197.551 145.247 197.131 145.269 196.697C145.768 186.897 146.312 177.101 147.037 167.314C147.508 160.954 147.904 154.591 148.253 148.222C148.307 147.23 148.363 146.238 148.418 145.246C148.703 140.14 148.936 135.07 148.829 129.954C148.87 128.6 148.87 128.6 149.481 127.372Z"
            fill="#02171B" />
        <path
            d="M67.6105 138.423C71.8287 138.741 75.5031 140.836 79.2191 142.72C79.2191 143.125 79.2191 143.53 79.2191 143.948C78.4126 144.15 77.6061 144.353 76.7752 144.562C76.9377 145.024 77.0996 145.486 77.267 145.962C80.54 155.853 80.6256 165.546 80.441 175.871C80.2394 175.871 80.0378 175.871 79.8301 175.871C79.772 175.38 79.714 174.889 79.6541 174.383C78.3588 158.568 78.3588 158.568 71.3601 144.818C70.6654 143.948 70.6654 143.948 70.6654 142.72C70.2872 142.568 69.909 142.416 69.5198 142.26C68.007 141.366 67.6404 140.646 66.9995 139.037C67.2011 138.834 67.4028 138.631 67.6105 138.423Z"
            fill="#338367" />
        <path
            d="M135.429 100.36C136.618 101.556 136.45 103.713 136.651 105.31C136.704 105.727 136.757 106.144 136.811 106.574C136.964 107.776 137.113 108.98 137.262 110.183C137.368 111.026 137.368 111.026 137.477 111.885C137.611 112.955 137.743 114.024 137.873 115.094C137.47 115.094 137.066 115.094 136.651 115.094C136.651 114.486 136.651 113.879 136.651 113.252C136.008 113.48 135.365 113.708 134.703 113.943C132.26 114.507 131.463 114.427 129.319 113.252C129.042 113.556 128.765 113.86 128.479 114.173C127.486 115.094 127.486 115.094 126.264 115.094C126.544 112.281 127.382 110.312 128.679 107.868C129.623 105.848 130.161 103.746 130.718 101.591C131.597 99.0981 133.278 99.806 135.429 100.36Z"
            fill="#62B271" />
        <path
            d="M128.097 124.303C129.609 125.214 129.609 125.214 131.152 126.144C131.354 125.537 131.555 124.929 131.763 124.303C131.965 124.911 132.166 125.518 132.374 126.144C133.18 126.144 133.987 126.144 134.818 126.144C135.019 125.537 135.221 124.929 135.429 124.303C135.731 125.214 135.731 125.214 136.04 126.144C136.443 126.144 136.846 126.144 137.262 126.144C137.463 125.537 137.665 124.929 137.873 124.303C138.276 125.113 138.679 125.923 139.095 126.758C139.498 126.556 139.901 126.353 140.317 126.144C140.518 125.537 140.72 124.929 140.928 124.303C141.532 124.505 142.137 124.708 142.76 124.917C143.383 127.305 143.474 128.358 142.493 130.672C142.178 131.204 141.863 131.736 141.539 132.284C141.337 132.284 141.135 132.284 140.928 132.284C140.625 130.764 140.625 130.764 140.317 129.214C139.712 129.011 139.107 128.809 138.484 128.6C138.282 129.613 138.08 130.626 137.873 131.67C137.671 131.67 137.469 131.67 137.262 131.67C136.959 130.15 136.959 130.15 136.651 128.6C136.247 128.6 135.844 128.6 135.429 128.6C135.026 129.005 134.622 129.41 134.207 129.828C134.207 129.423 134.207 129.018 134.207 128.6C132.795 128.803 131.384 129.005 129.93 129.214C129.93 128.809 129.93 128.404 129.93 127.986C128.922 127.986 127.914 127.986 126.875 127.986C126.875 128.999 126.875 130.012 126.875 131.056C126.472 131.056 126.069 131.056 125.653 131.056C125.451 130.448 125.25 129.84 125.042 129.214C124.437 129.214 123.832 129.214 123.209 129.214C122.806 130.227 122.403 131.24 121.987 132.284C121.382 131.473 120.777 130.663 120.154 129.828C119.751 130.638 119.348 131.449 118.932 132.284C118.529 132.284 118.126 132.284 117.71 132.284C117.71 131.878 117.71 131.473 117.71 131.056C117.106 131.258 116.501 131.461 115.877 131.67C116.17 129.08 116.59 127.497 118.321 125.531C118.926 125.733 119.531 125.936 120.154 126.144C119.953 126.752 119.751 127.36 119.543 127.986C120.148 127.986 120.753 127.986 121.376 127.986C121.376 126.973 121.376 125.96 121.376 124.917C121.641 125.208 121.905 125.499 122.178 125.799C123.223 126.904 123.223 126.904 125.042 127.372C125.042 126.562 125.042 125.752 125.042 124.917C125.445 124.917 125.849 124.917 126.264 124.917C126.264 125.524 126.264 126.132 126.264 126.758C126.667 126.758 127.071 126.758 127.486 126.758C127.688 125.948 127.889 125.138 128.097 124.303Z"
            fill="#010904" />
        <path
            d="M103.047 153.156C103.517 153.389 103.517 153.389 103.996 153.625C116.658 159.841 126.695 162.772 140.928 161.137C139.368 162.959 137.611 163.798 135.467 164.821C132.848 166.064 132.848 166.064 130.472 167.701C128.68 168.95 127.359 168.559 125.283 168.255C122.94 167.671 121.03 166.623 118.932 165.435C120.811 164.49 122.199 165.21 124.202 165.704C124.928 165.88 125.654 166.056 126.403 166.238C127.241 166.448 127.241 166.448 128.097 166.662C128.097 165.852 128.097 165.042 128.097 164.207C127.608 164.133 127.119 164.06 126.615 163.984C118.282 162.492 109.328 160.479 103.047 154.384C103.047 153.979 103.047 153.574 103.047 153.156Z"
            fill="#2D7B62" />
        <path
            d="M163.534 221.914C164.34 222.117 165.147 222.319 165.978 222.528C162.088 227.931 158.134 231.31 152.536 234.806C152.021 235.14 151.504 235.474 150.973 235.818C149.402 236.692 147.97 237.187 146.236 237.646C145.696 237.793 145.156 237.94 144.601 238.092C135.435 240.075 126.578 239.592 117.71 236.648C117.71 236.243 117.71 235.838 117.71 235.42C118.869 235.507 120.027 235.598 121.186 235.689C121.83 235.739 122.475 235.789 123.14 235.84C125.042 236.034 125.042 236.034 126.486 236.353C136.978 238.274 147.459 235.736 156.324 230.008C159.226 227.734 161.37 224.883 163.534 221.914Z"
            fill="#19776E" />
        <path
            d="M73.7201 124.303C74.1234 124.303 74.5266 124.303 74.9421 124.303C75.0991 124.689 75.2555 125.075 75.4168 125.473C77.3805 129.883 79.7334 132.414 83.4958 135.353C83.8783 135.656 84.2601 135.96 84.6542 136.273C89.795 140.35 94.9651 144.266 100.603 147.631C98.7703 148.245 98.7703 148.245 97.7175 147.858C97.3326 147.641 96.9471 147.424 96.5506 147.2C95.895 146.833 95.895 146.833 95.2254 146.459C94.7574 146.188 94.2887 145.916 93.8061 145.636C93.3216 145.359 92.837 145.082 92.3373 144.796C74.7331 134.613 74.7331 134.613 71.8872 127.986C72.1023 126.151 72.3925 125.637 73.7201 124.303Z"
            fill="#4E956B" />
        <path
            d="M189.806 220.687C188.973 222.523 188.004 223.934 186.675 225.444C186.346 225.821 186.016 226.198 185.677 226.586C185.427 226.867 185.176 227.149 184.918 227.44C187.447 225.414 189.554 223.65 191.028 220.687C191.835 220.889 192.641 221.092 193.472 221.3C188.472 228.507 188.472 228.507 184.307 229.895C180.48 230.526 176.842 230.852 173.372 228.898C170.928 226.8 169.476 224.984 168.422 221.914C169.955 222.145 170.67 222.276 171.644 223.528C171.866 223.92 172.088 224.312 172.317 224.715C173.563 226.601 173.563 226.601 175.754 227.286C178.972 226.478 180.632 223.932 182.474 221.3C183.281 221.503 184.087 221.706 184.918 221.914C183.709 223.738 183.709 223.738 182.474 225.598C183.986 224.529 185.201 223.458 186.484 222.106C187.973 220.687 187.973 220.687 189.806 220.687Z"
            fill="#1F7C6F" />
        <path
            d="M71.2763 196.13C71.2763 196.333 71.2763 196.535 71.2763 196.744C70.5675 196.811 69.8588 196.878 69.1281 196.948C60.993 197.759 54.0126 199.087 46.6032 202.756C45.0042 203.497 45.0042 203.497 43.7822 203.497C44.1331 201.029 44.6104 199.276 46.2261 197.358C54.3423 193.05 62.6755 193.789 71.2763 196.13Z"
            fill="#328468" />
        <path
            d="M54.1686 169.118C53.1758 177.954 47.9169 185.237 43.2098 192.506C41.0159 195.895 38.9593 199.318 37.0612 202.883C36.3044 200.548 36.7486 199.41 37.855 197.219C38.0719 196.809 38.2888 196.399 38.5123 195.977C38.7331 195.545 38.9539 195.114 39.1814 194.668C40.9741 191.2 42.9144 187.822 44.8644 184.441C46.8546 180.917 48.3004 177.293 49.6555 173.482C50.5894 171.379 51.6367 169.118 54.1686 169.118Z"
            fill="#4D9973" />
        <path
            d="M102.436 97.9048C104.662 99.7944 105.181 101.001 105.453 103.89C105.944 107.379 106.709 110.042 109.157 112.639C112.272 114.504 115.382 114.86 118.933 115.094C116.742 117.447 115.557 118.105 112.288 118.317C109.949 118.279 108.556 117.856 106.713 116.322C105.005 113.885 104.231 111.359 103.544 108.495C103.437 108.061 103.331 107.628 103.221 107.182C102.483 104.022 102.205 101.157 102.436 97.9048Z"
            fill="#5EAC73" />
        <path
            d="M69.4433 199.2C69.4433 199.402 69.4433 199.605 69.4433 199.814C68.6875 200.041 67.9311 200.269 67.1521 200.504C60.7065 202.687 55.2317 206.063 49.8919 210.25C49.3367 210.679 48.7814 211.108 48.2094 211.55C46.796 212.584 46.796 212.584 46.2261 213.934C45.8228 213.934 45.4196 213.934 45.0041 213.934C44.8403 214.326 44.6764 214.719 44.5077 215.123C43.7822 216.389 43.7822 216.389 41.9492 217.003C42.0951 214.511 42.2498 213.082 43.8585 211.132C44.4382 210.639 45.0179 210.145 45.6151 209.636C45.9202 209.356 46.2253 209.076 46.5396 208.787C49.187 206.392 51.9242 204.667 55.0853 203.037C55.5255 202.8 55.9658 202.563 56.4194 202.32C60.7645 200.038 64.5511 199.027 69.4433 199.2Z"
            fill="#57A470" />
        <path
            d="M194.694 189.991C194.895 189.991 195.097 189.991 195.305 189.991C195.659 193.745 196.006 197.5 196.349 201.254C196.466 202.528 196.584 203.8 196.704 205.073C198.889 228.239 198.889 228.239 194.433 234.113C193.001 235.725 192.043 236.595 189.882 236.878C189.24 236.764 189.24 236.764 188.584 236.648C189.025 236.218 189.466 235.787 189.921 235.343C194.159 231.223 194.159 231.223 196.056 225.83C195.995 221.591 195.728 217.42 195.305 213.204C194.587 205.461 194.565 197.761 194.694 189.991Z"
            fill="#238076" />
        <path
            d="M113.433 114.48C115.45 114.48 117.466 114.48 119.543 114.48C119.745 115.291 119.946 116.101 120.154 116.936C119.822 117.196 119.491 117.456 119.149 117.725C114.959 121.177 113.572 124.677 112.211 129.828C112.01 129.828 111.808 129.828 111.601 129.828C111.601 126.992 111.601 124.155 111.601 121.233C110.088 120.625 110.088 120.625 108.546 120.005C107.359 118.869 106.489 117.641 105.491 116.322C105.692 115.917 105.894 115.512 106.102 115.094C106.366 115.385 106.631 115.677 106.903 115.977C108.808 117.748 110.884 117.712 113.388 117.693C115.274 117.479 116.712 116.679 118.321 115.708C116.708 115.505 115.095 115.303 113.433 115.094C113.433 114.892 113.433 114.689 113.433 114.48Z"
            fill="#07170C" />
        <path
            d="M191.639 164.207C196.276 164.207 200.914 164.207 205.692 164.207C206.297 165.422 206.901 166.638 207.525 167.89C205.221 167.944 202.917 167.976 200.613 168.006C199.958 168.021 199.303 168.036 198.628 168.052C198 168.058 197.372 168.064 196.725 168.07C196.146 168.08 195.567 168.089 194.97 168.1C193.472 167.89 193.472 167.89 192.352 167.073C191.639 166.049 191.639 166.049 191.639 164.207Z"
            fill="#043031" />
        <path
            d="M139.706 184.466C140.109 184.466 140.512 184.466 140.927 184.466C140.927 185.479 140.927 186.492 140.927 187.535C123.811 194.102 123.811 194.102 114.044 193.674C116.234 191.578 118.54 191.438 121.414 191.103C126.939 190.338 135.608 188.583 139.706 184.466Z"
            fill="#28765F" />
        <path
            d="M146.426 175.871C146.628 175.871 146.83 175.871 147.037 175.871C148.128 184.498 147.683 192.945 146.907 201.575C146.374 207.53 146.065 213.486 145.815 219.459C145.614 219.459 145.412 219.459 145.204 219.459C144.658 215.139 144.568 210.989 144.785 206.643C144.813 206.007 144.841 205.371 144.87 204.716C145.313 195.097 145.875 185.484 146.426 175.871Z"
            fill="#031F21" />
        <path
            d="M82.8848 116.936C83.0865 116.936 83.2881 116.936 83.4958 116.936C83.6467 117.708 83.7982 118.48 83.954 119.276C85.2475 125.004 87.2564 129.708 90.5887 134.548C91.4385 135.967 91.4385 135.967 91.4385 137.809C86.8293 133.502 82.36 128.607 80.4409 122.461C80.5509 120.088 81.3238 118.7 82.8848 116.936Z"
            fill="#58A16E" />
        <path
            d="M159.257 107.113C160.479 107.727 160.479 107.727 161.133 109.43C162.493 114.097 163.278 118.211 162.923 123.075C161.915 123.075 160.907 123.075 159.868 123.075C159.845 122.681 159.822 122.288 159.799 121.883C159.601 119.266 159.413 116.978 158.264 114.596C157.348 112.46 157.283 111.719 158.035 109.569C158.685 108.15 158.685 108.15 159.257 107.113Z"
            fill="#2B7F64" />
        <path
            d="M93.8824 88.0823C96.0911 88.7956 97.0883 90.083 98.152 92.1107C100.537 97.8839 101.595 103.962 101.825 110.183C100.817 109.98 99.8089 109.778 98.7703 109.569C98.5687 108.556 98.367 107.543 98.1593 106.5C98.5625 106.297 98.9658 106.094 99.3813 105.886C98.8552 100.934 98.3793 96.6451 95.7154 92.3796C95.3121 92.177 94.9089 91.9745 94.4934 91.7657C94.4934 92.3735 94.4934 92.9813 94.4934 93.6075C94.0902 93.6075 93.6869 93.6075 93.2715 93.6075C93.2116 89.8307 93.2116 89.8307 93.2715 88.6962C93.4731 88.4936 93.6747 88.291 93.8824 88.0823Z"
            fill="#52A06C" />
        <path
            d="M94.4931 91.7656C96.3358 92.5735 96.8656 92.8719 97.9299 94.6817C99.3064 98.2264 99.552 102.134 99.9919 105.886C99.3871 106.088 98.7822 106.291 98.159 106.499C95.3705 102.731 93.5486 98.9692 94.0728 94.1832C94.2115 93.3851 94.3502 92.5876 94.4931 91.7656Z"
            fill="#448D63" />
        <path
            d="M137.873 112.025C138.074 112.025 138.276 112.025 138.484 112.025C138.674 113.713 138.674 113.713 138.484 115.708C137.033 117.166 137.033 117.166 135.429 118.164C135.026 118.164 134.622 118.164 134.207 118.164C134.207 117.556 134.207 116.948 134.207 116.322C132.997 116.322 131.787 116.322 130.541 116.322C130.339 116.93 130.138 117.538 129.93 118.164C126.417 117.089 126.417 117.089 125.042 115.708C124.966 114.097 124.966 114.097 125.042 112.639C125.445 112.639 125.849 112.639 126.264 112.639C126.264 113.449 126.264 114.259 126.264 115.094C126.888 114.448 126.888 114.448 127.524 113.79C128.117 113.41 128.709 113.03 129.319 112.639C131.457 113.137 131.457 113.137 133.596 113.866C135.319 113.696 135.319 113.696 136.651 113.252C136.651 113.86 136.651 114.468 136.651 115.094C137.054 115.094 137.457 115.094 137.873 115.094C137.873 114.081 137.873 113.068 137.873 112.025Z"
            fill="#081A0E" />
        <path
            d="M157.424 235.42C163.562 235.324 169.632 235.622 175.754 236.034C174.532 237.262 174.532 237.262 172.407 237.382C171.562 237.374 170.718 237.359 169.873 237.339C169.442 237.333 169.01 237.328 168.565 237.322C167.499 237.307 166.433 237.285 165.367 237.262C165.367 239.693 165.367 242.124 165.367 244.629C164.561 244.629 163.754 244.629 162.923 244.629C162.721 242.4 162.52 240.172 162.312 237.876C160.699 237.268 159.086 236.66 157.424 236.034C157.424 235.832 157.424 235.629 157.424 235.42Z"
            fill="#0B4B4A" />
        <path
            d="M85.9398 108.955C87.1996 110.335 87.777 111.021 87.7562 112.93C87.6444 113.482 87.5326 114.035 87.4171 114.605C87.301 115.207 87.1849 115.808 87.0652 116.428C86.9332 117.051 86.8013 117.674 86.6656 118.317C86.478 119.267 86.478 119.267 86.2868 120.236C85.9776 121.798 85.6575 123.358 85.3288 124.917C83.5392 121.384 82.3209 118.226 83.4885 114.284C84.2461 112.47 85.0477 110.705 85.9398 108.955Z"
            fill="#18725E" />
        <path
            d="M131.763 224.984C131.965 224.984 132.166 224.984 132.374 224.984C132.45 227.056 132.45 227.056 132.374 229.281C131.152 230.509 131.152 230.509 128.785 230.663C126.842 230.62 125.472 230.388 123.82 229.281C124.022 228.673 124.224 228.066 124.431 227.44C124.923 227.363 125.414 227.288 125.921 227.209C126.437 227.083 126.954 226.956 127.486 226.826C127.688 226.42 127.889 226.015 128.097 225.598C128.835 225.617 128.835 225.617 129.587 225.636C131.112 225.78 131.112 225.78 131.763 224.984Z"
            fill="#18745F" />
        <path
            d="M182.474 221.3C183.281 221.503 184.087 221.705 184.918 221.914C183.708 223.738 183.708 223.738 182.474 225.598C183.281 224.99 184.087 224.382 184.918 223.756C184.767 225.809 184.137 226.387 182.665 227.9C181.2 229.046 180.608 229.287 178.694 229.588C176.845 229.258 176.252 228.925 175.143 227.439C175.785 227.224 176.428 227.009 177.09 226.787C179.851 225.625 180.92 223.809 182.474 221.3Z"
            fill="#031613" />
        <path
            d="M109.157 52.4754C109.653 53.5114 109.653 53.5114 109.768 54.931C108.546 56.6193 108.546 56.6193 106.713 58.0006C104.384 58.1924 104.384 58.1924 102.436 58.0006C102.207 56.6193 102.207 56.6193 102.436 54.931C104.643 53.0233 106.23 52.1293 109.157 52.4754Z"
            fill="#051409" />
        <path
            d="M117.71 235.42C123.839 235.879 129.936 236.56 136.04 237.262C136.04 237.667 136.04 238.072 136.04 238.49C123.495 238.842 123.495 238.842 117.71 236.648C117.71 236.243 117.71 235.838 117.71 235.42Z"
            fill="#469A7B" />
        <path
            d="M194.694 189.991C194.895 189.991 195.097 189.991 195.305 189.991C196.279 198.623 196.684 207.089 196.527 215.775C196.325 215.775 196.123 215.775 195.916 215.775C194.596 207.172 194.558 198.682 194.694 189.991Z"
            fill="#2E8373" />
        <path
            d="M95.1046 69.051C95.5078 69.2536 95.9111 69.4562 96.3265 69.6649C96.4023 70.083 96.4774 70.5005 96.5556 70.9308C96.9137 72.6234 97.3914 73.6867 98.1973 75.1901C99.2079 77.1252 99.6582 78.4893 99.3814 80.7153C98.9782 80.7153 98.5749 80.7153 98.1595 80.7153C95.8512 77.5046 94.0934 73.958 92.6606 70.2788C93.8062 69.6269 93.8062 69.6269 95.1046 69.051Z"
            fill="#5CAA6E" />
        <path
            d="M86.5504 138.423C88.6357 139.377 90.369 140.615 92.202 141.991C94.9331 144.013 97.6996 145.87 100.603 147.631C98.77 148.245 98.77 148.245 97.5816 147.771C97.1417 147.518 96.7025 147.265 96.2497 147.005C95.7677 146.732 95.2856 146.459 94.7889 146.177C94.2885 145.885 93.7875 145.592 93.2712 145.291C92.5197 144.863 92.5197 144.863 91.7535 144.426C89.7727 143.293 87.8365 142.149 85.9395 140.878C86.1411 140.068 86.3427 139.258 86.5504 138.423Z"
            fill="#4F936D" />
        <path
            d="M43.171 187.535C43.7759 187.738 44.3807 187.941 45.0039 188.149C44.2163 190.238 43.3144 192.143 42.1925 194.07C41.8932 194.587 41.5939 195.103 41.2856 195.635C40.8201 196.431 40.8201 196.431 40.3452 197.243C40.0302 197.785 39.7152 198.328 39.3906 198.887C38.616 200.22 37.8395 201.552 37.0612 202.883C36.5998 201.51 36.3659 200.7 36.8005 199.295C36.9968 198.917 37.1931 198.537 37.3954 198.147C37.6096 197.726 37.8238 197.304 38.0445 196.87C38.2745 196.436 38.5045 196.002 38.7414 195.554C38.962 195.123 39.1825 194.691 39.4097 194.247C40.587 191.96 41.8227 189.726 43.171 187.535Z"
            fill="#448F6C" />
        <path
            d="M78.6077 155.612C78.8094 155.612 79.011 155.612 79.2187 155.612C80.9838 162.23 80.5567 169.084 80.4407 175.871C80.239 175.871 80.0374 175.871 79.8297 175.871C79.5193 173.608 79.2157 171.344 78.9132 169.08C78.8258 168.442 78.7385 167.805 78.648 167.148C77.5434 158.821 77.5434 158.821 78.6077 155.612Z"
            fill="#468E6B" />
        <path
            d="M144.594 97.2908C147.377 97.6321 147.377 97.6321 148.26 98.5186C148.374 100.015 148.374 100.015 148.26 101.588C147.038 102.816 147.038 102.816 145.472 102.931C143.983 102.816 143.983 102.816 143.372 102.202C143.257 100.398 143.257 100.398 143.372 98.5186C143.775 98.1134 144.178 97.7082 144.594 97.2908Z"
            fill="#64B876" />
        <path
            d="M147.648 127.986C148.253 128.391 148.858 128.796 149.481 129.214C149.724 130.746 149.724 130.746 149.71 132.552C149.715 133.147 149.719 133.741 149.724 134.353C149.443 136.222 148.995 136.577 147.648 137.809C147.202 140.025 147.202 140.025 147.037 142.106C146.836 142.106 146.634 142.106 146.426 142.106C146.511 139.982 146.602 137.86 146.694 135.737C146.718 135.132 146.742 134.527 146.767 133.905C146.792 133.327 146.817 132.749 146.844 132.154C146.866 131.62 146.889 131.086 146.912 130.537C147.037 129.214 147.037 129.214 147.648 127.986Z"
            fill="#13655F" />
        <path
            d="M145.205 49.406C149.134 49.7041 149.134 49.7041 150.703 51.1326C151.314 52.4756 151.314 52.4756 151.124 53.8568C150.985 54.2114 150.846 54.5659 150.703 54.9312C148.537 54.7498 147.782 54.4546 146.236 52.8592C145.205 51.2477 145.205 51.2477 145.205 49.406Z"
            fill="#06150B" />
        <path
            d="M116.489 97.2908C118.649 97.6198 118.649 97.6198 119.544 98.5186C119.569 99.7464 119.57 100.974 119.544 102.202C117.787 102.586 117.787 102.586 115.878 102.816C115.474 102.411 115.071 102.006 114.656 101.588C114.857 99.5641 115.036 98.75 116.489 97.2908Z"
            fill="#5CAF73" />
        <path
            d="M95.1045 91.7656C98.2406 94.6019 98.8773 97.351 99.4577 101.473C99.5604 102.186 99.6624 102.899 99.7681 103.634C99.8793 104.445 99.8793 104.445 99.9923 105.272C98.818 104.777 98.818 104.777 97.5484 104.044C96.7847 102.125 96.7847 102.125 96.3264 100.36C96.7297 100.36 97.1329 100.36 97.5484 100.36C97.3761 99.5531 97.1965 98.7476 97.0138 97.9428C96.9148 97.4946 96.8152 97.0459 96.7132 96.5836C96.4303 95.322 96.4303 95.322 95.1045 94.8352C95.1045 93.8222 95.1045 92.8093 95.1045 91.7656Z"
            fill="#081C0E" />
        <path
            d="M135.429 220.687C135.63 220.687 135.832 220.687 136.04 220.687C136.09 221.168 136.141 221.649 136.193 222.145C136.485 223.846 136.485 223.846 137.911 224.562C138.302 224.701 138.692 224.84 139.095 224.984C139.296 224.174 139.498 223.363 139.706 222.528C139.438 225.326 139.186 227.18 137.262 229.281C136.455 229.079 135.649 228.876 134.818 228.667C135.019 226.034 135.221 223.4 135.429 220.687Z"
            fill="#1A6F5D" />
        <path
            d="M144.593 236.648C144.593 237.053 144.593 237.458 144.593 237.876C138.693 239.338 132.904 239.223 126.875 239.104C126.875 238.901 126.875 238.699 126.875 238.49C129.899 238.49 132.924 238.49 136.04 238.49C136.04 238.085 136.04 237.679 136.04 237.262C138.894 236.522 141.67 236.59 144.593 236.648Z"
            fill="#247464" />
        <path
            d="M66.9995 139.037C71.0723 141.145 74.5811 144.485 76.1642 148.859C75.9626 149.467 75.7609 150.075 75.5532 150.701C74.7351 149.604 73.9213 148.503 73.1093 147.401C72.4287 146.482 72.4287 146.482 71.7346 145.545C70.6654 143.948 70.6654 143.948 70.6654 142.72C70.2872 142.568 69.909 142.416 69.5198 142.26C68.007 141.366 67.6404 140.646 66.9995 139.037Z"
            fill="#4E9D75" />
        <path
            d="M142.15 112.638C145.779 113.246 145.779 113.246 149.482 113.866C148.26 116.322 148.26 116.322 146.656 117.089C146.177 117.241 145.698 117.393 145.205 117.55C142.15 114.02 142.15 114.02 142.15 112.638Z"
            fill="#5AAB6D" />
        <path
            d="M163.534 221.914C164.34 222.117 165.147 222.319 165.978 222.528C165.105 223.645 164.225 224.757 163.343 225.867C162.609 226.796 162.609 226.796 161.861 227.744C160.479 229.281 160.479 229.281 158.646 229.895C159.014 227.621 160.005 226.298 161.433 224.523C161.825 224.033 162.217 223.542 162.62 223.037C162.922 222.666 163.223 222.296 163.534 221.914Z"
            fill="#0E8074" />
        <path
            d="M168.422 221.914C169.91 222.148 170.667 222.296 171.666 223.463C171.893 223.838 172.121 224.213 172.355 224.6C173.652 226.58 174.884 227.527 176.976 228.667C176.976 229.072 176.976 229.478 176.976 229.895C173.813 229.354 171.801 227.252 169.644 224.984C168.727 223.18 168.727 223.18 168.422 221.914Z"
            fill="#137B6F" />
        <path
            d="M128.097 124.303C129.105 125.113 130.113 125.923 131.152 126.758C129.319 127.986 129.319 127.986 126.875 127.986C126.875 128.999 126.875 130.012 126.875 131.056C126.472 131.056 126.069 131.056 125.653 131.056C124.169 127.197 124.169 127.197 125.042 124.917C125.445 124.917 125.849 124.917 126.264 124.917C126.264 125.524 126.264 126.132 126.264 126.758C126.667 126.758 127.071 126.758 127.486 126.758C127.688 125.948 127.889 125.138 128.097 124.303Z"
            fill="#010904" />
        <path
            d="M70.054 189.991C72.0458 190.904 73.6783 192.052 75.4001 193.406C76.1326 193.977 76.1326 193.977 76.8799 194.559C77.2483 194.875 77.6167 195.191 77.9967 195.516C77.9967 195.719 77.9967 195.921 77.9967 196.13C75.1557 196.576 73.3368 195.466 71.0346 193.948C70.054 193.061 70.054 193.061 69.7485 191.334C69.8493 190.891 69.9502 190.448 70.054 189.991Z"
            fill="#2B7A62" />
        <path
            d="M140.928 124.303C141.533 124.505 142.137 124.708 142.761 124.917C143.383 127.305 143.474 128.358 142.493 130.672C142.178 131.204 141.863 131.736 141.539 132.284C141.337 132.284 141.135 132.284 140.928 132.284C140.739 131.701 140.549 131.118 140.355 130.519C139.783 128.685 139.783 128.685 139.095 127.372C139.498 127.372 139.901 127.372 140.317 127.372C140.518 126.359 140.72 125.346 140.928 124.303Z"
            fill="#010904" />
        <path
            d="M99.9921 102.816C100.395 102.816 100.799 102.816 101.214 102.816C101.416 105.247 101.617 107.678 101.825 110.183C100.817 109.98 99.8088 109.778 98.7702 109.569C98.5685 108.556 98.3669 107.543 98.1592 106.499C98.5624 106.297 98.9657 106.094 99.3811 105.885C99.7819 104.334 99.7819 104.334 99.9921 102.816Z"
            fill="#58AB72" />
        <path
            d="M187.973 220.687C188.578 220.687 189.183 220.687 189.806 220.687C188.327 223.884 186.343 226.724 183.162 228.322C182.519 228.493 182.519 228.493 181.863 228.667C182.758 227.46 183.655 226.255 184.558 225.053C185.336 224.014 186.103 222.965 186.866 221.914C187.231 221.509 187.597 221.104 187.973 220.687Z"
            fill="#318874" />
        <path
            d="M142.761 149.473C142.962 149.473 143.164 149.473 143.372 149.473C143.372 150.486 143.372 151.499 143.372 152.542C142.076 153.175 140.777 153.8 139.477 154.422C138.754 154.772 138.031 155.12 137.286 155.48C136.673 155.726 136.06 155.972 135.429 156.226C135.026 156.023 134.622 155.821 134.207 155.612C134.722 155.272 135.237 154.931 135.768 154.581C136.437 154.136 137.107 153.691 137.797 153.233C138.463 152.792 139.129 152.35 139.816 151.895C141.529 150.784 141.529 150.784 142.761 149.473Z"
            fill="#36826A" />
        <path
            d="M149.481 127.372C149.885 127.575 150.288 127.777 150.703 127.986C150.72 129.534 150.732 131.082 150.741 132.629C150.747 133.061 150.752 133.494 150.757 133.939C150.77 136.728 150.549 139.355 150.092 142.106C149.891 142.106 149.689 142.106 149.481 142.106C149.362 139.881 149.249 137.655 149.138 135.43C149.086 134.479 149.086 134.479 149.034 133.509C149.004 132.904 148.975 132.298 148.944 131.675C148.916 131.115 148.887 130.555 148.857 129.98C148.87 128.6 148.87 128.6 149.481 127.372Z"
            fill="#000C11" />
        <path
            d="M127.486 225.598C127.688 225.598 127.889 225.598 128.097 225.598C128.097 227.016 128.097 228.434 128.097 229.895C129.105 229.895 130.113 229.895 131.152 229.895C131.152 230.098 131.152 230.3 131.152 230.509C125.915 230.685 125.915 230.685 123.82 229.281C124.022 228.673 124.224 228.066 124.431 227.439C125.439 227.237 126.448 227.034 127.486 226.825C127.486 226.42 127.486 226.015 127.486 225.598Z"
            fill="#10584B" />
        <path
            d="M85.3286 241.559C84.183 241.999 83.0356 242.436 81.8845 242.861C80.91 243.226 79.941 243.605 78.9775 243.998C78.5027 244.181 78.028 244.364 77.5386 244.552C76.8818 244.816 76.8818 244.816 76.2116 245.084C74.942 245.243 74.942 245.243 73.5575 244.365C73.208 244.047 72.8585 243.729 72.498 243.401C73.1384 243.275 73.7787 243.149 74.4385 243.02C75.2811 242.853 76.1236 242.686 76.9655 242.519C77.5985 242.394 77.5985 242.394 78.2437 242.268C84.015 241.119 84.015 241.119 85.3286 241.559Z"
            fill="#397C62" />
        <path
            d="M69.4431 199.2C69.4431 199.402 69.4431 199.605 69.4431 199.814C68.0971 200.264 66.7505 200.714 65.4027 201.159C64.2296 201.558 63.0718 202.003 61.9207 202.461C59.9661 202.963 59.5242 202.622 57.8345 201.655C61.8364 200 65.096 198.87 69.4431 199.2Z"
            fill="#418A6E" />
        <path
            d="M182.474 221.3C183.281 221.503 184.087 221.705 184.918 221.914C180.685 227.326 180.685 227.326 176.976 228.053C177.219 227.772 177.463 227.49 177.713 227.199C179.365 225.277 180.996 223.364 182.474 221.3Z"
            fill="#368567" />
        <path
            d="M116.489 67.8232C118.801 68.1554 119.905 69.0977 121.377 70.8928C121.377 71.5006 121.377 72.1083 121.377 72.7345C119.478 72.5282 118.564 72.3723 117.215 70.9695C116.489 69.665 116.489 69.665 116.489 67.8232Z"
            fill="#0B1E11" />
        <path
            d="M118.321 126.758C119.314 127.795 119.314 127.795 120.154 129.214C119.658 130.902 119.658 130.902 118.932 132.283C118.529 132.283 118.126 132.283 117.71 132.283C117.71 131.878 117.71 131.473 117.71 131.056C117.106 131.258 116.501 131.461 115.877 131.67C116.068 129.905 116.068 129.905 116.488 127.986C117.093 127.581 117.698 127.176 118.321 126.758Z"
            fill="#010904" />
        <path
            d="M147.038 65.9814C146.749 68.5893 145.273 69.8294 143.372 71.5066C142.969 71.5066 142.565 71.5066 142.15 71.5066C142.333 69.3039 142.62 68.5709 144.25 67.0177C145.816 65.9814 145.816 65.9814 147.038 65.9814Z"
            fill="#0D2313" />
        <path
            d="M92.0496 142.72C94.0023 143.664 95.8474 144.739 97.7011 145.866C98.2461 146.197 98.7911 146.528 99.3526 146.869C99.9715 147.246 99.9715 147.246 100.603 147.631C98.7704 148.245 98.7704 148.245 96.8537 147.365C96.1273 146.961 95.4045 146.551 94.6841 146.135C94.3139 145.927 93.943 145.72 93.5618 145.505C92.6471 144.991 91.7368 144.47 90.8276 143.948C91.2309 143.543 91.6341 143.137 92.0496 142.72Z"
            fill="#3C8064" />
        <path
            d="M119.543 84.3987C120.525 84.5558 121.505 84.7247 122.483 84.8972C123.302 85.0365 123.302 85.0365 124.138 85.1783C125.765 85.6597 126.421 86.1704 127.486 87.4682C124.008 87.7476 122.267 87.2153 119.543 85.0126C119.543 84.81 119.543 84.6074 119.543 84.3987Z"
            fill="#091E10" />
        <path
            d="M145.204 84.3986C141.493 87.408 141.493 87.408 139.132 87.6597C138.717 87.5964 138.301 87.5332 137.873 87.4681C137.873 87.063 137.873 86.6578 137.873 86.2403C138.747 85.8112 139.627 85.3907 140.507 84.9738C141.241 84.6214 141.241 84.6214 141.989 84.2617C143.371 83.7847 143.371 83.7847 145.204 84.3986Z"
            fill="#0F2817" />
        <path
            d="M158.035 62.2981C158.842 62.5007 159.648 62.7033 160.479 62.912C160.937 63.8709 160.937 63.8709 161.09 65.3676C160.399 66.9043 159.55 68.2346 158.646 69.665C157.835 67.221 157.993 64.8458 158.035 62.2981Z"
            fill="#539F6A" />
        <path
            d="M165.367 235.42C169.601 235.42 173.835 235.42 178.197 235.42C177.996 236.028 177.794 236.636 177.586 237.262C176.578 237.262 175.57 237.262 174.531 237.262C174.531 237.059 174.531 236.857 174.531 236.648C171.507 236.445 168.483 236.243 165.367 236.034C165.367 235.831 165.367 235.629 165.367 235.42Z"
            fill="#06393B" />
        <path
            d="M121.987 202.269C121.987 202.877 121.987 203.485 121.987 204.111C121.383 204.415 121.383 204.415 120.765 204.725C121.169 205.13 121.572 205.535 121.987 205.953C120.979 206.358 119.971 206.763 118.933 207.181C118.731 206.573 118.529 205.965 118.322 205.339C117.918 205.136 117.515 204.934 117.1 204.725C118.713 203.915 120.326 203.104 121.987 202.269Z"
            fill="#458E5F" />
        <path
            d="M48.67 189.991C49.0732 190.194 49.4765 190.396 49.8919 190.605C49.5745 190.917 49.2571 191.229 48.9301 191.55C46.4568 194.003 44.1203 196.473 41.9492 199.2C41.9492 196.929 42.4463 196.578 43.9349 194.94C44.3232 194.511 44.7115 194.081 45.1115 193.638C46.2733 192.396 47.4459 191.172 48.67 189.991Z"
            fill="#021511" />
        <path
            d="M144.594 97.2908C147.377 97.6321 147.377 97.6321 148.26 98.5186C148.285 99.5414 148.286 100.565 148.26 101.588C147.655 101.588 147.05 101.588 146.427 101.588C146.628 100.575 146.83 99.5622 147.038 98.5186C146.231 98.7212 145.425 98.9238 144.594 99.1325C144.392 100.145 144.19 101.158 143.983 102.202C143.781 102.202 143.579 102.202 143.372 102.202C143.295 100.437 143.295 100.437 143.372 98.5186C143.775 98.1134 144.178 97.7082 144.594 97.2908Z"
            fill="#53A571" />
        <path
            d="M158.035 228.667C158.237 229.275 158.438 229.883 158.646 230.509C157.975 231.026 157.3 231.536 156.622 232.044C156.247 232.329 155.871 232.613 155.483 232.907C154.369 233.579 154.369 233.579 152.536 233.579C152.536 233.173 152.536 232.768 152.536 232.351C153.739 231.425 153.739 231.425 155.286 230.432C155.796 230.101 156.306 229.77 156.832 229.43C157.229 229.178 157.626 228.926 158.035 228.667Z"
            fill="#1F8478" />
        <path
            d="M87.1618 129.828C88.8389 132.045 90.4427 134.312 92.0496 136.581C91.848 136.986 91.6463 137.391 91.4386 137.809C90.6003 137.066 89.7755 136.308 88.9568 135.545C88.4955 135.125 88.0348 134.705 87.5601 134.271C86.5508 132.897 86.5508 132.897 86.706 131.197C86.8563 130.745 87.0066 130.293 87.1618 129.828Z"
            fill="#47916B" />
        <path
            d="M95.1045 94.8352C96.9374 95.4491 96.9374 95.4491 97.5484 96.6769C97.5728 97.9047 97.5747 99.1326 97.5484 100.36C96.9435 100.36 96.3387 100.36 95.7155 100.36C95.5138 98.5371 95.3122 96.7138 95.1045 94.8352Z"
            fill="#438357" />
        <path
            d="M101.214 216.389C101.416 216.389 101.618 216.389 101.825 216.389C102.027 218.415 102.229 220.441 102.436 222.528C101.428 222.528 100.42 222.528 99.3813 222.528C99.754 220.344 100.345 218.425 101.214 216.389Z"
            fill="#083E3A" />
        <path
            d="M128.708 243.401C129.599 243.368 130.49 243.344 131.381 243.324C131.877 243.31 132.373 243.296 132.885 243.281C134.207 243.401 134.207 243.401 135.429 244.629C133.719 245.488 132.432 245.398 130.541 245.243C129.508 244.312 129.508 244.312 128.708 243.401Z"
            fill="#2B6C54" />
        <path
            d="M69.4431 199.814C66.541 202.806 66.541 202.806 65.1663 203.497C65.1663 202.889 65.1663 202.282 65.1663 201.655C64.763 201.453 64.3598 201.25 63.9443 201.041C65.8598 199.901 67.2283 199.69 69.4431 199.814Z"
            fill="#061C12" />
        <path
            d="M191.028 220.687C191.834 220.889 192.641 221.092 193.472 221.3C192.993 222.02 192.508 222.736 192.021 223.449C191.751 223.848 191.482 224.247 191.204 224.658C190.945 224.968 190.684 225.278 190.417 225.598C190.014 225.598 189.61 225.598 189.195 225.598C189.579 223.8 190.164 222.307 191.028 220.687Z"
            fill="#248679" />
        <path
            d="M38.8942 195.516C39.2975 196.124 39.7007 196.732 40.1162 197.358C39.108 199.181 38.0999 201.004 37.0613 202.883C36.4066 200.252 36.428 200.022 37.6341 197.818C37.8664 197.385 38.0988 196.951 38.3382 196.504C38.5216 196.178 38.7052 195.852 38.8942 195.516Z"
            fill="#3B886D" />
        <path
            d="M194.083 232.351C194.083 234.193 194.083 234.193 193.051 235.536C191.397 236.839 190.633 236.877 188.584 236.648C190.267 234.832 191.924 233.556 194.083 232.351Z"
            fill="#1F8880" />
        <path
            d="M69.4433 131.056C69.2417 131.866 69.04 132.676 68.8323 133.511C68.4669 133.575 68.1016 133.638 67.7252 133.703C66.2161 134.18 65.5801 134.783 64.5555 135.967C64.1522 135.764 63.749 135.562 63.3335 135.353C64.1192 134.633 64.9092 133.918 65.701 133.204C66.3603 132.606 66.3603 132.606 67.033 131.996C68.2213 131.056 68.2213 131.056 69.4433 131.056Z"
            fill="#26725C" />
        <path
            d="M87.7727 111.411C87.9744 111.411 88.176 111.411 88.3837 111.411C88.3837 113.437 88.3837 115.462 88.3837 117.55C87.7788 117.752 87.174 117.955 86.5508 118.164C86.6369 117.268 86.7267 116.373 86.8184 115.478C86.8679 114.979 86.9174 114.481 86.9687 113.967C87.1618 112.638 87.1618 112.638 87.7727 111.411Z"
            fill="#041D13" />
        <path
            d="M116.489 220.073C118.102 220.275 119.715 220.478 121.377 220.686C121.377 221.294 121.377 221.902 121.377 222.528C119.964 222.682 119.964 222.682 118.322 222.528C117.215 221.3 117.215 221.3 116.489 220.073Z"
            fill="#16604B" />
        <path
            d="M137.262 124.303C137.867 124.708 138.472 125.113 139.095 125.531C139.095 125.936 139.095 126.341 139.095 126.758C139.498 126.961 139.901 127.164 140.317 127.372C139.712 127.98 139.107 128.588 138.484 129.214C137.677 128.201 136.871 127.188 136.04 126.144C136.443 126.144 136.847 126.144 137.262 126.144C137.262 125.537 137.262 124.929 137.262 124.303Z"
            fill="#010904" />
        <path
            d="M99.381 48.792C99.381 49.1972 99.381 49.6024 99.381 50.0198C98.3118 50.9455 98.3118 50.9455 96.9371 51.9383C96.4831 52.269 96.0298 52.5999 95.5624 52.9407C95.2098 53.1923 94.8567 53.444 94.4932 53.7033C94.4932 53.0955 94.4932 52.4877 94.4932 51.8615C97.7613 48.792 97.7613 48.792 99.381 48.792Z"
            fill="#5AA86F" />
        <path
            d="M188.584 222.528C188.988 222.933 189.391 223.338 189.806 223.756C189.15 224.465 188.487 225.167 187.821 225.867C187.452 226.258 187.083 226.65 186.704 227.053C185.468 228.105 184.666 228.418 183.085 228.667C183.539 228.224 183.993 227.781 184.46 227.324C185.953 225.79 187.282 224.225 188.584 222.528Z"
            fill="#072A25" />
        <path
            d="M98.159 100.36C99.3473 102.152 99.6577 103.2 99.9919 105.272C98.8078 104.811 98.8078 104.811 97.548 104.044C97.0134 102.816 97.0134 102.816 96.937 101.588C97.3403 101.183 97.7435 100.778 98.159 100.36Z"
            fill="#041008" />
        <path
            d="M134.818 186.921C135.423 187.124 136.028 187.327 136.651 187.535C135.582 188.801 135.582 188.801 134.207 189.991C132.832 189.837 132.832 189.837 131.763 189.377C133.176 188.111 133.176 188.111 134.818 186.921Z"
            fill="#2C8067" />
        <path
            d="M142.15 112.638C145.779 113.246 145.779 113.246 149.482 113.866C149.28 114.474 149.078 115.082 148.871 115.708C148.669 115.303 148.467 114.898 148.26 114.48C146.647 114.683 145.034 114.885 143.372 115.094C142.969 114.284 142.565 113.473 142.15 112.638Z"
            fill="#55A477" />
        <path
            d="M128.097 124.303C129.105 125.113 130.113 125.923 131.152 126.758C129.319 127.986 129.319 127.986 127.486 127.986C127.46 126.963 127.461 125.939 127.486 124.917C127.688 124.714 127.889 124.511 128.097 124.303Z"
            fill="#010904" />
        <path
            d="M119.543 116.936C119.543 118.778 119.543 118.778 118.608 119.763C118.211 120.084 117.814 120.404 117.405 120.735C117.008 121.059 116.611 121.385 116.202 121.72C115.893 121.964 115.585 122.209 115.267 122.461C115.761 119.519 117.258 118.695 119.543 116.936Z"
            fill="#5BAD74" />
        <path
            d="M148.26 235.42C148.26 235.825 148.26 236.231 148.26 236.648C144.951 237.404 144.951 237.404 143.143 236.686C142.815 236.471 142.488 236.256 142.15 236.034C144.249 235.65 146.116 235.42 148.26 235.42Z"
            fill="#1F8173" />
        <path
            d="M163.534 221.914C164.341 222.117 165.147 222.319 165.978 222.528C165.172 223.339 164.365 224.149 163.534 224.984C162.929 224.781 162.324 224.579 161.701 224.37C162.306 223.56 162.911 222.749 163.534 221.914Z"
            fill="#14766C" />
        <path
            d="M46.8371 217.617C47.2404 217.82 47.6436 218.022 48.0591 218.231C47.2954 219.766 47.2954 219.766 46.2261 221.3C45.4196 221.3 44.6132 221.3 43.7822 221.3C43.7822 220.895 43.7822 220.49 43.7822 220.073C44.7759 219.224 45.7939 218.403 46.8371 217.617Z"
            fill="#246F5C" />
        <path
            d="M62.7223 200.427C62.5207 201.035 62.3191 201.643 62.1113 202.269C60.2784 202.883 60.2784 202.883 58.9419 202.307C58.5764 202.092 58.211 201.877 57.8345 201.655C59.7212 200.572 60.4208 200.427 62.7223 200.427Z"
            fill="#4E966E" />
        <path
            d="M118.933 164.821C119.838 164.977 120.742 165.146 121.644 165.319C122.399 165.459 122.399 165.459 123.169 165.6C123.794 165.822 123.794 165.822 124.431 166.049C124.633 166.656 124.835 167.264 125.042 167.89C124.137 167.615 123.233 167.332 122.331 167.046C121.828 166.89 121.325 166.733 120.806 166.572C119.544 166.049 119.544 166.049 118.933 164.821Z"
            fill="#1F6151" />
        <path
            d="M73.109 182.624C74.7965 184.32 74.6847 185.821 74.942 188.149C73.4273 186.826 72.7571 185.871 72.498 183.852C72.6997 183.447 72.9013 183.041 73.109 182.624Z"
            fill="#256F59" />
        <path
            d="M149.481 127.372C149.885 127.575 150.288 127.777 150.703 127.986C150.502 130.215 150.3 132.443 150.092 134.739C149.891 134.739 149.689 134.739 149.481 134.739C149.362 133.742 149.249 132.745 149.138 131.746C149.074 131.191 149.01 130.635 148.944 130.063C148.87 128.6 148.87 128.6 149.481 127.372Z"
            fill="#02191D" />
        <path
            d="M95.1046 69.051C95.5078 69.2536 95.9111 69.4562 96.3265 69.6649C96.3265 70.6779 96.3265 71.6908 96.3265 72.7345C95.3184 72.5319 94.3103 72.3293 93.2716 72.1206C93.07 71.5128 92.8684 70.905 92.6606 70.2788C93.8062 69.6269 93.8062 69.6269 95.1046 69.051Z"
            fill="#58A46E" />
    </g>
</svg>
    